<svg height="20px" viewBox="-6 0 512 512.00001" style="fill: #D69377" width="20px" xmlns="http://www.w3.org/2000/svg"><path d="m153.484375 275.210938c-.039063 27.5 11.71875 53.695312 32.289063 71.953124v100.257813c0 5.945313 4.820312 10.761719 10.765624 10.761719 1.953126 0 3.867188-.53125 5.539063-1.539063l48.273437-28.960937 48.273438 28.960937c5.09375 3.0625 11.707031 1.414063 14.769531-3.683593 1.003907-1.671876 1.535157-3.585938 1.535157-5.539063v-100.25c39.785156-35.707031 43.085937-96.902344 7.378906-136.6875-35.707032-39.78125-96.902344-43.085937-136.6875-7.375-20.472656 18.371094-32.160156 44.589844-32.136719 72.101563zm139.917969 153.203124-32.289063-19.375v-26.195312h-21.527343v26.195312l-32.289063 19.375v-66.472656c27.179687 13.226563 58.929687 13.226563 86.105469 0zm32.292968-153.203124c.070313 22.871093-10.335937 44.515624-28.246093 58.746093-13.359375 10.714844-29.96875 16.566407-47.097657 16.59375-17.132812.058594-33.761718-5.796875-47.078124-16.574219-32.488282-26-37.746094-73.414062-11.746094-105.898437 26-32.488281 73.414062-37.746094 105.902344-11.746094 17.878906 14.3125 28.28125 35.976563 28.265624 58.878907zm0 0"/><path d="m196.535156 275.210938c0 29.722656 24.09375 53.816406 53.816406 53.816406 29.722657 0 53.816407-24.097656 53.816407-53.816406 0-29.722657-24.09375-53.816407-53.816407-53.816407-29.707031.035157-53.78125 24.109375-53.816406 53.816407zm86.105469 0c0 17.832031-14.457031 32.289062-32.289063 32.289062-17.832031 0-32.289062-14.457031-32.289062-32.289062 0-17.832032 14.457031-32.289063 32.289062-32.289063 17.832032 0 32.289063 14.457031 32.289063 32.289063zm0 0"/><path d="m496.710938 196.347656-63.386719-51.308594v-85.09375c0-5.941406-4.816407-10.761718-10.761719-10.761718h-64.578125c-5.945313 0-10.765625 4.820312-10.765625 10.761718v15.390626l-90.097656-72.941407c-3.949219-3.191406-9.589844-3.191406-13.539063 0l-239.589843 193.953125c-4.621094 3.738282-5.335938 10.515625-1.59375 15.136719.003906.007813.007812.011719.011718.019531l27.125 33.363282c3.742188 4.605468 10.507813 5.308593 15.121094 1.574218l22.722656-18.394531v262.425781h-32.292968v21.527344h430.527343v-21.527344h-32.289062v-262.425781l22.722656 18.394531c4.613281 3.734375 11.375 3.03125 15.121094-1.574218l27.125-33.363282c3.746093-4.613281 3.046875-11.394531-1.566407-15.140625-.003906-.003906-.011718-.011719-.015624-.015625zm-127.964844-125.636718h43.050781v56.894531l-43.050781-34.84375zm43.054687 419.761718h-322.898437v-279.839844l161.449218-130.710937 161.449219 130.710937zm49.445313-267.515625-204.125-165.25c-3.949219-3.195312-9.589844-3.195312-13.539063 0l-204.125 165.25-13.539062-16.632812 224.433593-181.714844 224.433594 181.714844zm0 0"/></svg>