<svg id="Capa_1" enable-background="new 0 0 450.823 450.823" height="20px" viewBox="0 0 450.823 450.823" width="20px" style="fill: #D69377" xmlns="http://www.w3.org/2000/svg"><path d="m450.823 309.941c-55.5 0-84.529-21.256-84.529-42.265 0-7.787-6.301-14.088-14.088-14.088s-14.088 6.301-14.088 14.088c0 16.688-50.492 42.265-112.706 42.265s-112.706-25.576-112.706-42.265c0-7.787-6.301-14.088-14.088-14.088s-14.088 6.301-14.088 14.088c0 21.009-29.029 42.265-84.529 42.265v28.176c38.303 0 66.076-8.616 84.529-21.488v134.194h28.176v-141.369c27.427 17.978 70.949 28.663 112.706 28.663s85.279-10.685 112.706-28.663v141.369h28.176v-134.196c18.455 12.872 46.227 21.49 84.529 21.49z"/><path d="m217.159 64.606c11.004 11.004 11.004 28.844 0 39.847-11.004 11.004-28.844 11.004-39.847 0-11.004-11.004-11.004-28.844 0-39.847 11.003-11.004 28.844-11.004 39.847 0"/><path d="m98.618 225.412h253.588c7.787 0 14.088-6.301 14.088-14.088v-197.236c0-7.787-6.301-14.088-14.088-14.088h-253.588c-7.787 0-14.088 6.301-14.088 14.088v197.235c-.001 7.788 6.301 14.089 14.088 14.089zm132.646-28.177 50.501-50.52 50.52 50.52zm-118.558-169.058h225.412v135.049l-46.392-46.392c-5.283-5.283-14.639-5.283-19.922 0l-80.376 80.402h-78.722z"/></svg>